{"title":"Forbrydelsen - Season 1 - 720p x265 HEVC - DAN-ITA (ENG SUBS) [B","uid":13339340,"size":5720501023,"categoryP":"video","categoryS":"tv_shows","magnet":"?xt=urn:btih:2f0e6270757233bba8ac8c75fab4231c15f31098&amp;dn=Forbrydelsen+-+Season+1+-+720p+x265+HEVC+-+DAN-ITA+%28ENG+SUBS%29+%5BB&amp;tr=udp%3A%2F%2Ftracker.leechers-paradise.org%3A6969&amp;tr=udp%3A%2F%2Fzer0day.ch%3A1337&amp;tr=udp%3A%2F%2Fopen.demonii.com%3A1337&amp;tr=udp%3A%2F%2Ftracker.coppersurfer.tk%3A6969&amp;tr=udp%3A%2F%2Fexodus.desync.com%3A6969","seeders":1,"leechers":3,"uploader":"BRSHNKV","files":40,"time":1454013225,"description":"Police detective Sarah Lund investigates difficult cases with personal and political consequences.\r\n\r\nTechnical:\r\n\r\nFormat : MPEG-4\r\nFormat profile : Base Media / Version 2\r\nCodec ID : mp42\r\nOverall bit rate mode : Variable\r\nOverall bit rate : 659 Kbps\r\nEncoded date : UTC 2016-01-17 12:10:05\r\nTagged date : UTC 2016-01-17 12:10:05\r\nWriting application : HandBrake 0.10.2 2015061100\r\n\r\nVideo\r\nID : 1\r\nFormat : HEVC\r\nFormat/Info : High Efficiency Video Coding\r\nFormat profile :   @Main\r\nCodec ID : hev1\r\nCodec ID/Info : High Efficiency Video Coding\r\nBit rate : 321 Kbps\r\nWidth : 1 280 pixels\r\nHeight : 720 pixels\r\nDisplay aspect ratio : 16:9\r\nFrame rate mode : Constant\r\nFrame rate : 25.000 fps\r\nColor space : YUV\r\nChroma subsampling : 4:2:0\r\nBit depth : 8 bits\r\nBits/(Pixel*Frame) : 0.014\r\nStream size : 125 MiB (49%)\r\nWriting library : x265 1.5:[Mac OS X][clang 6.1.0][64 bit]\r\nEncoding settings : wpp / ctu=64 / tu-intra-depth=1 / tu-inter-depth=1 / me=3 / subme=3 / merange=57 / rect / no-amp / max-merge=3 / temporal-mvp / no-early-skip / no-fast-cbf / rdpenalty=0 / no-tskip / no-tskip-fast / strong-intra-smoothing / no-lossless / no-cu-lossless / no-constrained-intra / no-fast-intra / open-gop / interlace=0 / keyint=250 / min-keyint=25 / scenecut=40 / rc-lookahead=25 / bframes=4 / bframe-bias=0 / b-adapt=2 / ref=3 / weightp / no-weightb / aq-mode=1 / aq-strength=1.00 / cbqpoffs=0 / crqpoffs=0 / rd=4 / psy-rd=0.30 / psy-rdoq=1.00 / signhide / lft / sao / no-sao-non-deblock / b-pyramid / cutree / rc=2 / pass / bitrate=320 / qcomp=0.60 / qpmin=0 / qpmax=51 / qpstep=4 / cplxblur=20.0 / qblur=0.5 / ipratio=1.40 / pbratio=1.30\r\nEncoded date : UTC 2016-01-17 12:10:05\r\nTagged date : UTC 2016-01-17 12:10:05\r\nColor range : Limited\r\nColor primaries : BT.709\r\nTransfer characteristics : BT.709\r\nMatrix coefficients : BT.709\r\n\r\nAudio #1\r\nID : 2\r\nFormat : AAC\r\nFormat/Info : Advanced Audio Codec\r\nFormat profile : LC\r\nCodec ID : 40\r\nBit rate mode : Variable\r\nBit rate : 164 Kbps\r\nChannel(s) : 2 channels\r\nChannel positions : Front: L R\r\nSampling rate : 48.0 KHz\r\nCompression mode : Lossy\r\nStream size : 63.9 MiB (25%)\r\nTitle : Stereo / Stereo\r\nLanguage : Italian\r\nEncoded date : UTC 2016-01-17 12:10:05\r\nTagged date : UTC 2016-01-17 12:10:05\r\n\r\nAudio #2\r\nID : 3\r\nFormat : AAC\r\nFormat/Info : Advanced Audio Codec\r\nFormat profile : LC\r\nCodec ID : 40\r\nBit rate mode : Variable\r\nBit rate : 164 Kbps\r\nChannel(s) : 2 channels\r\nChannel positions : Front: L R\r\nSampling rate : 48.0 KHz\r\nCompression mode : Lossy\r\nStream size : 63.9 MiB (25%)\r\nTitle : Stereo / Stereo\r\nLanguage : Danish\r\nEncoded date : UTC 2016-01-17 12:10:05\r\nTagged date : UTC 2016-01-17 12:10:05","torrent":{"xt":"urn:btih:2f0e6270757233bba8ac8c75fab4231c15f31098","amp;dn":"Forbrydelsen+-+Season+1+-+720p+x265+HEVC+-+DAN-ITA+%28ENG+SUBS%29+%5BB","amp;tr":["udp%3A%2F%2Ftracker.leechers-paradise.org%3A6969","udp%3A%2F%2Fzer0day.ch%3A1337","udp%3A%2F%2Fopen.demonii.com%3A1337","udp%3A%2F%2Ftracker.coppersurfer.tk%3A6969","udp%3A%2F%2Fexodus.desync.com%3A6969"],"infoHash":"2f0e6270757233bba8ac8c75fab4231c15f31098","infoHashBuffer":{"type":"Buffer","data":[47,14,98,112,117,114,51,187,168,172,140,117,250,180,35,28,21,243,16,152]},"announce":[],"urlList":[]}}